<svg width="320" height="104" viewBox="0 0 320 104" fill="none" xmlns="http://www.w3.org/2000/svg">
<g clip-path="url(#clip0_218_2678)">
<path d="M47.6729 12.5166C47.6173 12.7762 47.4967 12.9802 47.3113 13.1285C47.1259 13.2768 46.9219 13.351 46.6994 13.351C46.3656 13.351 46.0968 13.2444 45.8928 13.0311C45.6888 12.8179 45.5868 12.5722 45.5868 12.2941C45.5869 12.0159 45.6147 11.7424 45.6703 11.4736C45.7259 11.2047 45.7537 10.9405 45.7537 10.6809C45.7537 9.32725 45.3365 8.11271 44.5021 7.03723C43.6677 5.96176 42.4856 5.0578 40.9559 4.32537C39.4261 3.59293 37.5672 3.03203 35.3792 2.64268C33.1911 2.25332 30.7528 2.05862 28.0641 2.05858C26.0059 2.05858 23.9338 2.19301 21.8477 2.46188C19.7617 2.73075 17.759 3.12014 15.8398 3.63006C13.9206 4.13999 12.1266 4.77973 10.4578 5.54929C8.78902 6.31886 7.33808 7.2089 6.10499 8.21943C4.8719 9.22996 3.90305 10.3518 3.19845 11.585C2.49385 12.8181 2.14154 14.1671 2.14152 15.6319C2.14152 16.763 2.38721 17.7597 2.87859 18.6219C3.36997 19.4841 4.04213 20.2351 4.89508 20.8748C5.74802 21.5145 6.75394 22.0615 7.91284 22.5157C9.07173 22.97 10.328 23.3501 11.6817 23.6561C13.0353 23.9621 14.4446 24.2124 15.9094 24.4071C17.3743 24.6018 18.8485 24.764 20.3319 24.8938L24.6152 25.2554C26.7477 25.4408 28.6575 25.6355 30.3449 25.8395C32.0323 26.0435 33.5157 26.3031 34.7952 26.6183C36.9276 27.156 38.5037 27.9256 39.5235 28.9269C40.5434 29.9282 41.0533 31.2632 41.0533 32.9321C41.0533 34.5453 40.6083 35.9638 39.7182 37.1876C38.8282 38.4114 37.6136 39.4406 36.0746 40.275C34.5355 41.1095 32.7369 41.7399 30.6786 42.1663C28.6203 42.5928 26.4138 42.806 24.0589 42.8061C21.5 42.8061 19.2518 42.6345 17.314 42.2915C15.3763 41.9485 13.7538 41.5683 12.4466 41.1511C11.1393 40.7339 10.1426 40.3492 9.45657 39.9968C8.77053 39.6445 8.39967 39.4498 8.34401 39.4127C8.01024 39.2273 7.84335 38.9306 7.84335 38.5227C7.84335 38.2075 7.95461 37.9525 8.17712 37.7578C8.39963 37.5631 8.64069 37.4658 8.90028 37.4658C9.10425 37.4658 9.28968 37.5214 9.45656 37.6326C9.4751 37.6326 9.79497 37.7949 10.4161 38.1194C11.0373 38.4439 11.9644 38.8008 13.1975 39.1902C14.4306 39.5796 15.9557 39.9319 17.7729 40.2472C19.5901 40.5624 21.6994 40.72 24.1007 40.72C26.5019 40.72 28.6204 40.5253 30.4562 40.1359C32.2919 39.7465 33.8356 39.2041 35.0873 38.5087C36.3389 37.8134 37.2846 36.9975 37.9243 36.061C38.564 35.1246 38.8839 34.1094 38.8839 33.0154C38.8839 32.3664 38.768 31.8055 38.5362 31.3326C38.3044 30.8598 37.9846 30.4519 37.5766 30.1088C37.1687 29.7658 36.6819 29.4737 36.1164 29.2327C35.5508 28.9916 34.9343 28.7877 34.2668 28.6208C33.5622 28.4353 32.8066 28.2777 32 28.1479C31.1933 28.0181 30.3636 27.9069 29.5107 27.8142C28.6577 27.7214 27.8048 27.638 26.9517 27.5638L20.1095 26.9797C16.7347 26.7016 13.7911 26.2705 11.2786 25.6864C8.76602 25.1023 6.67534 24.3513 5.00649 23.4335C3.33765 22.5157 2.08603 21.417 1.25163 20.1375C0.417236 18.858 2.43291e-05 17.356 1.12646e-09 15.6315C-2.43268e-05 13.9071 0.394008 12.3171 1.1821 10.8615C1.97019 9.40584 3.04565 8.09393 4.40848 6.92575C5.77132 5.75757 7.366 4.74234 9.19252 3.88008C11.019 3.01782 12.9706 2.29927 15.0473 1.72446C17.124 1.14964 19.275 0.718521 21.5002 0.43111C23.7255 0.143699 25.9135 -4.15346e-06 28.0644 0C30.7531 0 33.0941 0.162248 35.0874 0.486745C37.0807 0.811241 38.7867 1.22845 40.2052 1.73838C41.6238 2.24831 42.7874 2.82776 43.6959 3.47675C44.6045 4.12573 45.337 4.76548 45.8933 5.39597C47.2098 6.93501 47.8681 8.68729 47.8681 10.6528C47.8681 11.3018 47.8032 11.923 47.6734 12.5164L47.6729 12.5166ZM67.5602 13.8794C67.5602 14.1761 67.4582 14.4125 67.2542 14.5887C67.0502 14.7648 66.7999 14.8529 66.5032 14.8529H52.4016V15.1589C52.4016 16.29 52.3182 17.4952 52.1513 18.7747C51.9844 20.0541 51.7572 21.3289 51.4698 22.599C51.1824 23.8692 50.8579 25.1069 50.4963 26.3122C50.1348 27.5175 49.7639 28.6301 49.3838 29.6499C49.0037 30.6698 48.6282 31.5552 48.2573 32.3061C47.8865 33.057 47.5527 33.6179 47.256 33.9888C47.4971 34.8418 47.7845 35.6345 48.1182 36.3669C48.452 37.0993 48.8275 37.7391 49.2447 38.2861C49.6619 38.8332 50.1116 39.2643 50.5937 39.5795C51.0758 39.8946 51.595 40.0523 52.1513 40.0523C52.8003 40.0523 53.4447 39.7788 54.0844 39.2318C54.7241 38.6848 55.3175 38.0358 55.8645 37.2848C56.4115 36.5338 56.8936 35.7735 57.3108 35.004C57.728 34.2344 58.0293 33.6225 58.2148 33.1682C58.4002 32.7139 58.7247 32.4868 59.1883 32.4868C59.5035 32.4868 59.7584 32.598 59.9531 32.8205C60.1478 33.043 60.2452 33.2841 60.2452 33.5437C60.2452 33.6735 60.2174 33.8033 60.1617 33.9331L59.7723 34.8231C59.5498 35.2867 59.2671 35.8244 58.924 36.4363C58.581 37.0483 58.1823 37.6926 57.728 38.3694C57.2737 39.0462 56.7638 39.6627 56.1983 40.219C55.6327 40.7752 55.0255 41.2388 54.3765 41.6097C53.7275 41.9805 53.0414 42.166 52.3182 42.166C51.0388 42.166 49.8892 41.7487 48.8693 40.9143C47.8495 40.0799 46.9826 38.9117 46.2687 37.4098C45.5547 35.9079 45.0124 34.1278 44.6415 32.0695C44.2707 30.0113 44.0852 27.7583 44.0852 25.3107C44.0852 24.6988 44.0945 23.9803 44.113 23.1551C44.1316 22.33 44.1687 21.4585 44.2243 20.5407C44.2799 19.6229 44.3634 18.6772 44.4746 17.7036C44.5859 16.7301 44.7342 15.7798 44.9196 14.8526H34.9345C34.6378 14.8526 34.3874 14.7646 34.1835 14.5884C33.9795 14.4123 33.8775 14.1758 33.8775 13.8792C33.8775 13.5825 33.9795 13.346 34.1835 13.1699C34.3874 12.9937 34.6378 12.9057 34.9344 12.9057H45.3926C45.578 12.2381 45.7959 11.6262 46.0462 11.0699C46.2965 10.5137 46.5839 10.0316 46.9084 9.62364C47.2329 9.21573 47.5945 8.89587 47.9932 8.66406C48.3919 8.43225 48.8276 8.31636 49.3004 8.31638C49.7733 8.31641 50.1812 8.4323 50.5243 8.66406C50.8673 8.89581 51.1594 9.21567 51.4004 9.62364C51.6414 10.0316 51.8315 10.5137 51.9706 11.0699C52.1097 11.6262 52.2163 12.2381 52.2904 12.9057H66.5034C66.8001 12.9057 67.0504 12.9938 67.2544 13.1699C67.4584 13.3461 67.5604 13.5825 67.5604 13.8792L67.5602 13.8794ZM46.6156 31.2079C47.1718 29.984 47.6771 28.6629 48.1314 27.2444C48.5857 25.8259 48.9751 24.3934 49.2996 22.9471C49.6241 21.5007 49.8744 20.0822 50.0506 18.6915C50.2267 17.3008 50.3148 16.0214 50.3148 14.8532H47.0327C46.7732 16.0028 46.5645 17.426 46.4069 19.1226C46.2493 20.8193 46.1705 22.8822 46.1705 25.3113C46.1705 26.6649 46.2076 27.8006 46.2818 28.7185C46.3559 29.6363 46.4672 30.4661 46.6155 31.2078L46.6156 31.2079ZM49.2023 10.4033C49.0354 10.4033 48.7943 10.584 48.4791 10.9456C48.1639 11.3072 47.8486 11.9609 47.5334 12.9066H50.2036C50.1108 12.1278 49.9764 11.5159 49.8003 11.0709C49.6241 10.6258 49.4248 10.4033 49.2023 10.4033L49.2023 10.4033ZM47.0606 33.2104V33.2382V33.2104ZM60.5226 39.3573C60.8192 38.7268 61.1623 38.0454 61.5517 37.313C61.9411 36.5805 62.3583 35.8296 62.8033 35.0601C63.2483 34.2906 63.7212 33.5257 64.2218 32.7654C64.7225 32.0052 65.2417 31.296 65.7795 30.6377C66.3173 29.9795 66.8597 29.5067 67.4066 29.2192C67.9536 28.9318 68.4682 28.7881 68.9503 28.7881C69.4325 28.7882 69.8543 28.8855 70.2159 29.0802C70.5774 29.2748 70.8741 29.5391 71.1059 29.8729C71.3377 30.2067 71.5139 30.5961 71.6344 31.0411C71.7548 31.486 71.8151 31.9681 71.8152 32.4873C71.8152 32.9138 71.7734 33.484 71.69 34.1979C71.6066 34.9118 71.5648 35.6582 71.5648 36.437C71.5648 36.882 71.588 37.3224 71.6344 37.7581C71.6807 38.1939 71.7642 38.5833 71.8847 38.9263C72.0052 39.2694 72.186 39.5475 72.4271 39.7607C72.6681 39.974 72.9833 40.0806 73.3727 40.0806C73.8178 40.0806 74.2628 39.9554 74.7078 39.7051C75.1528 39.4548 75.5886 39.121 76.0151 38.7038C76.4415 38.2866 76.8495 37.823 77.2389 37.3131C77.6283 36.8032 77.9806 36.2933 78.2958 35.7834C78.611 35.2735 78.8892 34.7821 79.1302 34.3092C79.3713 33.8363 79.566 33.4422 79.7143 33.1271C79.8998 32.7006 80.2243 32.4873 80.6878 32.4873C81.0031 32.4873 81.2534 32.5986 81.4388 32.8211C81.6242 33.0436 81.7169 33.2847 81.7169 33.5443C81.7169 33.6926 81.6891 33.8317 81.6335 33.9615L81.2163 34.8793C80.9938 35.3429 80.7017 35.8806 80.3401 36.4926C79.9786 37.1045 79.5567 37.7442 79.0746 38.4118C78.5925 39.0794 78.0594 39.6959 77.4754 40.2614C76.8913 40.8269 76.2609 41.2904 75.5841 41.6521C74.9072 42.0137 74.198 42.1945 73.4564 42.1944C72.6034 42.1944 71.9173 42.0137 71.3981 41.6521C70.8789 41.2905 70.4756 40.8316 70.1882 40.2753C69.9008 39.719 69.7061 39.0978 69.6041 38.4117C69.5021 37.7256 69.4511 37.0581 69.4511 36.4091C69.4511 36.0753 69.4697 35.7137 69.5068 35.3243L69.7015 33.1549C69.72 32.8396 69.7293 32.5708 69.7293 32.3483C69.7293 31.7734 69.6505 31.384 69.4929 31.1801C69.3352 30.9761 69.1545 30.8741 68.9505 30.8741C68.6538 30.8741 68.3154 31.0456 67.9353 31.3887C67.5552 31.7317 67.1565 32.1814 66.7393 32.7377C66.3221 33.294 65.9049 33.9198 65.4876 34.6152C65.0704 35.3106 64.6671 36.0013 64.2777 36.6873C63.8883 37.3734 63.536 38.0224 63.2208 38.6343L62.442 40.192C62.0526 40.9708 61.6586 41.4946 61.2599 41.7635C60.8612 42.0324 60.5043 42.1668 60.1891 42.1668C59.6143 42.1668 59.1739 41.9396 58.8679 41.4853C58.562 41.031 58.409 40.4794 58.409 39.8304L58.4368 28.0372C58.4368 24.8664 58.4785 21.9135 58.562 19.1785C58.6454 16.4434 58.7845 13.968 58.9792 11.7522C59.1739 9.5364 59.4659 7.64504 59.8553 6.07812C60.2447 4.5112 60.7407 3.3013 61.3433 2.44843C61.9459 1.59556 62.7015 1.16908 63.6102 1.16899C64.3889 1.16899 65.0472 1.38223 65.5849 1.80871C66.1227 2.23519 66.5584 2.81464 66.8922 3.54708C67.226 4.27951 67.467 5.13248 67.6154 6.106C67.7637 7.07951 67.8379 8.10399 67.8379 9.17944C67.8379 11.3675 67.6385 13.5138 67.2399 15.6184C66.8412 17.723 66.3081 19.7766 65.6406 21.7792C64.9732 23.7818 64.1944 25.7334 63.3043 27.634C62.4142 29.5346 61.4778 31.3842 60.495 33.1829V38.0504L60.5226 39.3573ZM60.5226 29.094C61.3014 27.388 62.0106 25.7238 62.6503 24.1014C63.2901 22.4789 63.837 20.861 64.2913 19.2478C64.7456 17.6346 65.1025 15.9982 65.3621 14.3386C65.6218 12.679 65.7516 10.9499 65.7515 9.15127C65.7515 8.85459 65.7376 8.38175 65.7098 7.73276C65.682 7.08376 65.5986 6.42551 65.4595 5.75799C65.3204 5.09047 65.1072 4.50636 64.8198 4.00566C64.5324 3.50496 64.1291 3.25464 63.6099 3.25469C63.2019 3.25469 62.8496 3.5282 62.5529 4.0752C62.2562 4.62221 61.9966 5.36392 61.7741 6.30032C61.5516 7.23673 61.3662 8.3261 61.2178 9.56843C61.0695 10.8108 60.949 12.1273 60.8563 13.518C60.7635 14.9086 60.694 16.3364 60.6477 17.8013C60.6013 19.2662 60.5689 20.6893 60.5503 22.0707C60.5318 23.4521 60.5225 24.7454 60.5225 25.9507V29.0936L60.5226 29.094ZM95.5396 34.017C95.3357 34.4435 95.0807 34.9488 94.7748 35.5329C94.4688 36.117 94.1211 36.7242 93.7317 37.3547C93.3423 37.9851 92.9066 38.611 92.4245 39.2322C91.9424 39.8534 91.4185 40.4097 90.853 40.9011C90.2875 41.3924 89.6849 41.7911 89.0451 42.097C88.4054 42.403 87.724 42.556 87.0009 42.556C85.8883 42.556 84.9334 42.2129 84.136 41.5269C83.3387 40.8408 82.6619 39.9415 82.1056 38.829C81.5493 37.7164 81.0996 36.4509 80.7566 35.0324C80.4136 33.6138 80.1494 32.1675 79.9639 30.6934C79.7785 29.2192 79.6533 27.7868 79.5884 26.3961C79.5235 25.0054 79.4911 23.7722 79.4911 22.6967C79.4911 21.1392 79.5421 19.5259 79.6441 17.8571C79.746 16.1883 79.9083 14.5565 80.1308 12.9618C80.3533 11.3672 80.6361 9.85595 80.9791 8.42816C81.3222 7.00037 81.7301 5.74875 82.2029 4.6733C82.6758 3.59785 83.2182 2.74488 83.8301 2.11438C84.442 1.48388 85.1373 1.16866 85.9161 1.16871C86.528 1.16871 87.0796 1.31242 87.571 1.59983C88.0624 1.88724 88.475 2.35544 88.8087 3.00443C89.1425 3.65343 89.4021 4.4971 89.5875 5.53544C89.773 6.57379 89.8657 7.84397 89.8657 9.34599C89.8657 11.2003 89.671 13.1148 89.2816 15.0896C88.8922 17.0644 88.3637 19.0531 87.6962 21.0557C87.0286 23.0584 86.2405 25.0564 85.3319 27.0497C84.4233 29.043 83.4498 30.9853 82.4114 32.8767C82.875 35.2316 83.4962 37.0813 84.2749 38.4256C85.0537 39.7699 85.9902 40.4421 87.0842 40.4421C87.8259 40.4421 88.5398 40.15 89.2259 39.5659C89.912 38.9819 90.5424 38.2911 91.1172 37.4938C91.692 36.6964 92.1973 35.8852 92.6331 35.06C93.069 34.2349 93.4074 33.572 93.6483 33.0713C93.7411 32.8859 93.8709 32.7422 94.0377 32.6402C94.2046 32.5382 94.3901 32.4872 94.594 32.4872C94.9093 32.4872 95.1642 32.5985 95.3589 32.821C95.5536 33.0435 95.651 33.2938 95.651 33.572C95.651 33.6832 95.6139 33.8315 95.5397 34.017L95.5396 34.017ZM81.6055 22.8354C81.6055 24.0222 81.6333 25.1625 81.6889 26.2566C81.7446 27.3506 81.8187 28.3982 81.9114 29.3995C82.6902 27.8975 83.4319 26.2982 84.1366 24.6016C84.8412 22.9049 85.4624 21.1897 86.0001 19.456C86.5378 17.7222 86.969 15.9978 87.2934 14.2826C87.6179 12.5674 87.7802 10.931 87.7802 9.37337C87.7802 7.18534 87.604 5.61848 87.2517 4.67281C86.8994 3.72713 86.4266 3.2543 85.8332 3.2543C85.4438 3.2543 85.0683 3.52317 84.7068 4.06091C84.3452 4.59864 84.0068 5.33109 83.6915 6.25825C83.3763 7.18542 83.0889 8.27944 82.8293 9.54032C82.5697 10.8012 82.3518 12.1548 82.1757 13.6012C81.9995 15.0476 81.8605 16.5588 81.7585 18.1349C81.6565 19.711 81.6055 21.2778 81.6055 22.8355L81.6055 22.8354ZM100.074 39.2461C100.352 38.6898 100.709 37.9991 101.145 37.1739C101.581 36.3488 102.035 35.519 102.508 34.6846C102.981 33.8503 103.444 33.0622 103.898 32.3204C104.353 31.5786 104.737 31.013 105.053 30.6237C105.59 29.9747 106.147 29.5112 106.722 29.233C107.296 28.9549 107.825 28.8158 108.307 28.8158C108.789 28.8158 109.202 28.9178 109.545 29.1218C109.888 29.3257 110.17 29.5992 110.393 29.9423C110.616 30.2853 110.782 30.684 110.894 31.1383C111.005 31.5926 111.06 32.0793 111.061 32.5985C111.061 32.8952 111.051 33.2846 111.033 33.7667L110.949 35.3244L110.782 38.7177C111.061 38.1614 111.376 37.5448 111.728 36.868C112.08 36.1912 112.437 35.5191 112.799 34.8515C113.16 34.184 113.508 33.5582 113.842 32.974C114.176 32.3899 114.482 31.9124 114.76 31.5416C115.557 30.4475 116.303 29.7151 116.999 29.3443C117.694 28.9734 118.311 28.788 118.848 28.788C119.479 28.788 119.998 28.9039 120.406 29.1356C120.814 29.3674 121.134 29.6641 121.366 30.0257C121.597 30.3873 121.76 30.7906 121.852 31.2356C121.945 31.6806 121.991 32.1071 121.991 32.515C121.991 33.1455 121.945 33.8038 121.852 34.4898C121.76 35.1759 121.713 35.9918 121.713 36.9375C121.713 37.3269 121.732 37.7163 121.769 38.1057C121.806 38.4951 121.885 38.8382 122.005 39.1348C122.126 39.4315 122.316 39.6726 122.575 39.858C122.835 40.0434 123.197 40.1361 123.66 40.1361C124.124 40.1361 124.587 40.011 125.051 39.7607C125.514 39.5103 125.959 39.1812 126.386 38.7733C126.812 38.3653 127.216 37.9018 127.596 37.3826C127.976 36.8634 128.324 36.3442 128.639 35.8249C128.954 35.3057 129.232 34.8097 129.473 34.3369C129.714 33.8641 129.909 33.4608 130.057 33.127C130.15 32.923 130.28 32.7654 130.447 32.6541C130.614 32.5429 130.799 32.4873 131.003 32.4873C131.318 32.4873 131.573 32.6032 131.768 32.8349C131.963 33.0667 132.06 33.3124 132.06 33.572C132.06 33.7018 132.032 33.8316 131.977 33.9614L131.532 34.8793C131.309 35.3614 131.012 35.9037 130.642 36.5064C130.271 37.109 129.84 37.7441 129.348 38.4117C128.857 39.0792 128.314 39.6957 127.721 40.2612C127.128 40.8268 126.488 41.2903 125.802 41.6519C125.116 42.0136 124.393 42.1943 123.632 42.1943C122.816 42.1943 122.154 42.0506 121.644 41.7632C121.134 41.4758 120.726 41.091 120.42 40.6089C120.114 40.1268 119.905 39.5705 119.794 38.94C119.683 38.3096 119.627 37.6513 119.627 36.9653C119.627 36.0567 119.674 35.2176 119.766 34.4481C119.859 33.6786 119.905 33.0713 119.905 32.6263C119.905 32.1813 119.864 31.8382 119.78 31.5972C119.697 31.3561 119.595 31.1846 119.474 31.0826C119.354 30.9806 119.238 30.9204 119.127 30.9018H118.876C118.431 30.9018 117.963 31.1475 117.472 31.6389C116.98 32.1303 116.475 32.7839 115.956 33.5998C115.436 34.4158 114.908 35.3429 114.37 36.3812L112.701 39.552L111.923 41.0262C111.7 41.4156 111.491 41.7216 111.297 41.9441C111.102 42.1666 110.912 42.3242 110.727 42.4169C110.541 42.5097 110.337 42.556 110.115 42.556C109.633 42.556 109.266 42.3891 109.016 42.0554C108.766 41.7216 108.641 41.2858 108.641 40.7481C108.641 40.47 108.65 40.0991 108.668 39.6355L108.724 38.1058C108.742 37.5495 108.77 36.9747 108.807 36.3813C108.844 35.788 108.872 35.2132 108.891 34.6569L108.946 33.2106C108.965 32.7841 108.974 32.4597 108.974 32.2371C108.974 31.755 108.891 31.4074 108.724 31.1941C108.557 30.9809 108.367 30.8743 108.154 30.8743C107.941 30.8743 107.709 30.9484 107.458 31.0968C107.208 31.2451 106.916 31.5325 106.582 31.959C106.323 32.2928 105.994 32.7795 105.595 33.4192C105.196 34.059 104.774 34.7682 104.329 35.5469C103.884 36.3257 103.444 37.123 103.008 37.939C102.572 38.7549 102.197 39.4873 101.882 40.1363C101.492 40.9151 101.103 41.4482 100.714 41.7356C100.324 42.023 99.944 42.1667 99.5732 42.1667C99.0354 42.1667 98.6368 42.0045 98.3772 41.68C98.1176 41.3555 97.9878 40.9244 97.9878 40.3866L98.3772 31.5139C98.3957 31.0504 98.3772 30.6239 98.3215 30.2345C98.2659 29.8451 98.1917 29.6133 98.099 29.5391C97.9507 29.5762 97.6586 29.9193 97.2229 30.5683C96.7871 31.2173 96.2355 32.3484 95.568 33.9616C95.4753 34.1655 95.3362 34.3231 95.1508 34.4344C94.9653 34.5456 94.7706 34.6013 94.5667 34.6013C94.2514 34.6013 94.0011 34.4947 93.8157 34.2814C93.6302 34.0682 93.5375 33.8225 93.5375 33.5443C93.5375 33.4145 93.5653 33.2755 93.621 33.1271C94.4554 31.1431 95.2527 29.6828 96.013 28.7464C96.7732 27.81 97.5149 27.3418 98.2381 27.3418C98.6646 27.3418 99.0215 27.4392 99.3089 27.6339C99.5963 27.8286 99.8235 28.0789 99.9904 28.3848C100.157 28.6908 100.278 29.0385 100.352 29.4279C100.426 29.8173 100.463 30.1974 100.463 30.5682C100.463 32.2185 100.426 33.7298 100.352 35.1019L100.074 39.2461ZM147.107 19.8876C147.107 20.5922 146.862 21.1902 146.37 21.6816C145.879 22.173 145.281 22.4187 144.576 22.4187C143.872 22.4187 143.274 22.173 142.782 21.6816C142.291 21.1902 142.045 20.5922 142.045 19.8876C142.045 19.5352 142.11 19.2061 142.24 18.9002C142.37 18.5942 142.55 18.3253 142.782 18.0935C143.014 17.8618 143.283 17.681 143.589 17.5512C143.895 17.4214 144.224 17.3565 144.576 17.3565C144.929 17.3565 145.258 17.4214 145.564 17.5512C145.87 17.681 146.138 17.8618 146.37 18.0935C146.602 18.3253 146.783 18.5942 146.913 18.9002C147.042 19.2061 147.107 19.5353 147.107 19.8876L147.107 19.8876ZM142.602 36.1866C142.602 33.5164 142.768 30.8556 143.102 28.204C143.139 27.9444 143.255 27.7172 143.45 27.5225C143.645 27.3278 143.89 27.2305 144.187 27.2305C144.484 27.2305 144.725 27.3371 144.91 27.5503C145.096 27.7636 145.188 28.0093 145.188 28.2874C145.188 28.3987 145.17 28.7324 145.133 29.2887L144.966 31.2635C144.892 32.0423 144.831 32.8628 144.785 33.725C144.739 34.5872 144.715 35.3799 144.715 36.1031C144.715 37.0858 144.813 37.8785 145.007 38.4812C145.202 39.0838 145.452 39.552 145.758 39.8858C146.064 40.2195 146.389 40.4421 146.732 40.5533C147.075 40.6646 147.404 40.7202 147.719 40.7202C148.239 40.7202 148.776 40.5348 149.333 40.1639C149.889 39.7931 150.459 39.2738 151.043 38.6063C151.627 37.9387 152.216 37.1367 152.809 36.2003C153.403 35.2639 153.987 34.2208 154.562 33.0712C154.654 32.8857 154.784 32.742 154.951 32.6401C155.118 32.5381 155.303 32.4871 155.507 32.4871C155.804 32.4871 156.05 32.5983 156.244 32.8208C156.439 33.0434 156.536 33.2844 156.536 33.544C156.536 33.7294 156.499 33.887 156.425 34.0168L155.591 35.5745C155.257 36.1864 154.877 36.8169 154.45 37.4658C154.024 38.1148 153.556 38.7592 153.046 39.3989C152.536 40.0386 151.993 40.6134 151.419 41.1233C150.844 41.6332 150.241 42.0458 149.611 42.361C148.98 42.6763 148.341 42.8339 147.691 42.8339C146.857 42.8339 146.125 42.6577 145.494 42.3054C144.864 41.9531 144.331 41.4802 143.895 40.8869C143.459 40.2935 143.135 39.5935 142.921 38.7869C142.708 37.9803 142.602 37.1135 142.602 36.1863L142.602 36.1866ZM145.55 19.8876C145.55 19.628 145.452 19.4009 145.258 19.2062C145.063 19.0115 144.836 18.9141 144.576 18.9141C144.317 18.9141 144.094 19.0115 143.909 19.2062C143.723 19.4009 143.631 19.628 143.631 19.8876C143.631 20.1472 143.723 20.3697 143.909 20.5551C144.094 20.7406 144.317 20.8333 144.576 20.8333C144.836 20.8333 145.063 20.7406 145.258 20.5551C145.452 20.3697 145.55 20.1472 145.55 19.8876V19.8876ZM160.708 39.2183C161.005 38.6064 161.348 37.9342 161.738 37.2018C162.127 36.4693 162.544 35.7276 162.989 34.9767C163.434 34.2257 163.902 33.4793 164.394 32.7376C164.885 31.9958 165.4 31.2959 165.937 30.6376C166.475 29.9794 167.018 29.5066 167.565 29.2191C168.112 28.9317 168.626 28.788 169.108 28.788C170.073 28.788 170.786 29.1403 171.25 29.845C171.714 30.5496 171.945 31.4211 171.945 32.4594C171.945 32.7005 171.936 32.9879 171.918 33.3216L171.751 35.6024C171.714 36.0104 171.695 36.3905 171.695 36.7428C171.695 37.1878 171.718 37.6143 171.765 38.0223C171.811 38.4302 171.899 38.7871 172.029 39.0931C172.159 39.399 172.344 39.6401 172.585 39.8163C172.826 39.9924 173.141 40.0805 173.531 40.0805C174.235 40.0805 174.921 39.807 175.589 39.26C176.257 38.713 176.873 38.064 177.439 37.313C178.004 36.562 178.495 35.7971 178.913 35.0184C179.33 34.2396 179.641 33.6092 179.845 33.1271C179.937 32.9231 180.072 32.7655 180.248 32.6542C180.424 32.543 180.614 32.4873 180.818 32.4873C181.133 32.4873 181.388 32.6032 181.583 32.835C181.778 33.0668 181.875 33.3125 181.875 33.5721C181.875 33.7019 181.847 33.8317 181.792 33.9615L181.347 34.8793C181.124 35.3429 180.832 35.876 180.47 36.4786C180.109 37.0813 179.687 37.721 179.205 38.3979C178.723 39.0747 178.19 39.6912 177.606 40.2475C177.022 40.8037 176.391 41.2672 175.714 41.6382C175.037 42.0091 174.328 42.1945 173.587 42.1944C172.752 42.1944 172.075 42.0322 171.556 41.7077C171.037 41.3832 170.629 40.9567 170.332 40.4282C170.036 39.8998 169.836 39.3157 169.734 38.6759C169.632 38.0362 169.581 37.3918 169.581 36.7429C169.581 36.4647 169.595 36.1495 169.623 35.7972C169.651 35.4449 169.688 35.074 169.734 34.6846C169.781 34.2952 169.818 33.9059 169.846 33.5165C169.873 33.1271 169.887 32.7562 169.887 32.4039C169.887 31.8105 169.795 31.4072 169.609 31.194C169.424 30.9808 169.257 30.8741 169.109 30.8741C168.812 30.8741 168.473 31.0457 168.093 31.3887C167.713 31.7317 167.315 32.1814 166.897 32.7377C166.48 33.294 166.054 33.9198 165.618 34.6152C165.182 35.3106 164.774 36.0013 164.394 36.6873C164.014 37.3734 163.662 38.0271 163.337 38.6483C163.013 39.2695 162.758 39.7841 162.572 40.192C162.201 40.9708 161.831 41.4946 161.46 41.7635C161.089 42.0324 160.709 42.1668 160.319 42.1668C159.782 42.1668 159.35 42.0045 159.026 41.68C158.701 41.3555 158.539 40.8966 158.539 40.3032C158.539 40.1734 158.558 39.9139 158.595 39.5245L159.068 34.6292C159.123 34.0358 159.17 33.4796 159.207 32.9604C159.244 32.4412 159.262 32.0054 159.262 31.6531C159.262 31.1895 159.244 30.7445 159.207 30.318C159.17 29.8915 159.095 29.6319 158.984 29.5392C158.817 29.5949 158.521 29.9425 158.094 30.5823C157.668 31.222 157.121 32.3484 156.453 33.9616C156.36 34.1656 156.221 34.3232 156.036 34.4344C155.851 34.5457 155.656 34.6013 155.452 34.6013C155.137 34.6013 154.886 34.4947 154.701 34.2814C154.515 34.0682 154.423 33.8225 154.423 33.5444C154.423 33.4146 154.451 33.2755 154.506 33.1272C155.341 31.1431 156.124 29.6829 156.857 28.7465C157.589 27.8101 158.317 27.3419 159.04 27.3419C159.466 27.3419 159.828 27.4485 160.125 27.6617C160.421 27.875 160.658 28.1577 160.834 28.51C161.01 28.8623 161.14 29.2517 161.223 29.6782C161.307 30.1047 161.348 30.5405 161.348 30.9855C161.348 31.3192 161.325 31.8384 161.279 32.5431C161.233 33.2477 161.172 33.9986 161.098 34.796L160.903 37.2157C160.829 38.0131 160.764 38.6806 160.709 39.2183L160.708 39.2183ZM198.814 39.2461C199.092 38.6898 199.449 37.9991 199.884 37.1739C200.32 36.3488 200.774 35.519 201.247 34.6846C201.72 33.8503 202.184 33.0622 202.638 32.3204C203.092 31.5786 203.477 31.013 203.792 30.6237C204.33 29.9747 204.886 29.5112 205.461 29.233C206.036 28.9549 206.564 28.8158 207.047 28.8158C207.529 28.8158 207.941 28.9178 208.284 29.1218C208.627 29.3257 208.91 29.5992 209.133 29.9423C209.355 30.2853 209.522 30.684 209.633 31.1383C209.744 31.5926 209.8 32.0793 209.8 32.5985C209.8 32.8952 209.791 33.2846 209.772 33.7667L209.689 35.3244L209.522 38.7177C209.8 38.1614 210.115 37.5448 210.468 36.868C210.82 36.1912 211.177 35.5191 211.538 34.8515C211.9 34.184 212.248 33.5582 212.582 32.974C212.915 32.3899 213.221 31.9124 213.499 31.5416C214.297 30.4475 215.043 29.7151 215.738 29.3443C216.434 28.9734 217.05 28.788 217.588 28.788C218.218 28.788 218.738 28.9039 219.146 29.1356C219.553 29.3674 219.873 29.6641 220.105 30.0257C220.337 30.3873 220.499 30.7906 220.592 31.2356C220.685 31.6806 220.731 32.1071 220.731 32.515C220.731 33.1455 220.685 33.8038 220.592 34.4898C220.499 35.1759 220.453 35.9918 220.453 36.9375C220.453 37.3269 220.471 37.7163 220.508 38.1057C220.546 38.4951 220.624 38.8382 220.745 39.1348C220.865 39.4315 221.055 39.6726 221.315 39.858C221.575 40.0434 221.936 40.1361 222.4 40.1361C222.863 40.1361 223.327 40.011 223.791 39.7607C224.254 39.5103 224.699 39.1812 225.126 38.7733C225.552 38.3653 225.955 37.9018 226.335 37.3826C226.716 36.8634 227.063 36.3442 227.379 35.8249C227.694 35.3057 227.972 34.8097 228.213 34.3369C228.454 33.8641 228.649 33.4608 228.797 33.127C228.89 32.923 229.02 32.7654 229.186 32.6541C229.353 32.5429 229.539 32.4873 229.743 32.4873C230.058 32.4873 230.313 32.6032 230.508 32.8349C230.702 33.0667 230.8 33.3124 230.8 33.572C230.8 33.7018 230.772 33.8316 230.716 33.9614L230.271 34.8793C230.049 35.3614 229.752 35.9037 229.381 36.5064C229.01 37.109 228.579 37.7441 228.088 38.4117C227.596 39.0792 227.054 39.6957 226.461 40.2612C225.867 40.8268 225.228 41.2903 224.541 41.6519C223.855 42.0136 223.132 42.1943 222.372 42.1943C221.556 42.1943 220.893 42.0506 220.383 41.7632C219.873 41.4758 219.465 41.091 219.159 40.6089C218.853 40.1268 218.645 39.5705 218.534 38.94C218.422 38.3096 218.367 37.6513 218.367 36.9653C218.367 36.0567 218.413 35.2176 218.506 34.4481C218.599 33.6786 218.645 33.0713 218.645 32.6263C218.645 32.1813 218.603 31.8382 218.52 31.5972C218.436 31.3561 218.334 31.1846 218.214 31.0826C218.093 30.9806 217.977 30.9204 217.866 30.9018H217.616C217.171 30.9018 216.703 31.1475 216.211 31.6389C215.72 32.1303 215.214 32.7839 214.695 33.5998C214.176 34.4158 213.648 35.3429 213.11 36.3812L211.441 39.552L210.662 41.0262C210.44 41.4156 210.231 41.7216 210.036 41.9441C209.842 42.1666 209.652 42.3242 209.466 42.4169C209.281 42.5097 209.077 42.556 208.854 42.556C208.372 42.556 208.006 42.3891 207.756 42.0554C207.505 41.7216 207.38 41.2858 207.38 40.7481C207.38 40.47 207.389 40.0991 207.408 39.6355L207.464 38.1058C207.482 37.5495 207.51 36.9747 207.547 36.3813C207.584 35.788 207.612 35.2132 207.63 34.6569L207.686 33.2106C207.705 32.7841 207.714 32.4597 207.714 32.2371C207.714 31.755 207.63 31.4074 207.464 31.1941C207.297 30.9809 207.107 30.8743 206.893 30.8743C206.68 30.8743 206.448 30.9484 206.198 31.0968C205.948 31.2451 205.656 31.5325 205.322 31.959C205.062 32.2928 204.733 32.7795 204.334 33.4192C203.936 34.059 203.514 34.7682 203.069 35.5469C202.624 36.3257 202.184 37.123 201.748 37.939C201.312 38.7549 200.937 39.4873 200.621 40.1363C200.232 40.9151 199.843 41.4482 199.453 41.7356C199.064 42.023 198.684 42.1667 198.313 42.1667C197.775 42.1667 197.376 42.0045 197.117 41.68C196.857 41.3555 196.727 40.9244 196.727 40.3866L197.117 31.5139C197.135 31.0504 197.117 30.6239 197.061 30.2345C197.006 29.8451 196.931 29.6133 196.839 29.5391C196.69 29.5762 196.398 29.9193 195.962 30.5683C195.527 31.2173 194.975 32.3484 194.308 33.9616C194.215 34.1655 194.076 34.3231 193.89 34.4344C193.705 34.5456 193.51 34.6013 193.306 34.6013C192.991 34.6013 192.741 34.4947 192.555 34.2814C192.37 34.0682 192.277 33.8225 192.277 33.5443C192.277 33.4145 192.305 33.2755 192.361 33.1271C193.195 31.1431 193.992 29.6828 194.753 28.7464C195.513 27.81 196.255 27.3418 196.978 27.3418C197.404 27.3418 197.761 27.4392 198.049 27.6339C198.336 27.8286 198.563 28.0789 198.73 28.3848C198.897 28.6908 199.017 29.0385 199.092 29.4279C199.166 29.8173 199.203 30.1974 199.203 30.5682C199.203 32.2185 199.166 33.7298 199.092 35.1019L198.814 39.2461ZM239.144 42.1109C239.793 41.4619 240.451 40.799 241.119 40.1222C241.786 39.4454 242.435 38.7362 243.066 37.9945C243.696 37.2528 244.285 36.4787 244.832 35.672C245.379 34.8653 245.865 34.0077 246.292 33.0993C246.385 32.8953 246.515 32.7423 246.681 32.6403C246.848 32.5383 247.034 32.4874 247.238 32.4874C247.553 32.4874 247.808 32.5986 248.003 32.8211C248.197 33.0436 248.295 33.294 248.295 33.5721C248.295 33.7204 248.267 33.8595 248.211 33.9893C247.636 35.1946 246.978 36.2979 246.236 37.2992C245.495 38.3005 244.716 39.2508 243.9 40.1502C243.084 41.0495 242.259 41.921 241.425 42.7646C240.59 43.6082 239.793 44.4566 239.033 45.3096C238.958 46.589 238.958 47.8731 239.033 49.1618C239.107 50.4505 239.144 51.8181 239.144 53.2644C239.144 54.4512 239.107 55.6379 239.033 56.8246C238.958 58.0114 238.838 59.1471 238.671 60.2319C238.504 61.3166 238.277 62.3319 237.99 63.2776C237.702 64.2232 237.336 65.0437 236.891 65.7391C236.446 66.4344 235.927 66.9814 235.333 67.38C234.74 67.7787 234.044 67.978 233.247 67.978C231.931 67.978 230.92 67.5237 230.216 66.6151C229.511 65.7066 229.159 64.4364 229.159 62.8046C229.159 61.9146 229.256 60.9596 229.451 59.9398C229.645 58.9199 229.919 57.8676 230.271 56.7829C230.623 55.6981 231.045 54.5994 231.537 53.4868C232.028 52.3742 232.561 51.2895 233.136 50.2325C233.711 49.1756 234.323 48.1697 234.972 47.2148C235.621 46.2599 236.279 45.393 236.946 44.6141L237.086 41.8328C237.123 40.8871 237.169 40.0063 237.225 39.1904C236.742 40.0434 236.144 40.7295 235.431 41.2487C234.717 41.7679 233.933 42.0275 233.08 42.0275C231.671 42.0275 230.568 41.5546 229.77 40.609C228.973 39.6633 228.574 38.3653 228.574 36.715C228.574 35.5097 228.69 34.4111 228.922 33.419C229.154 32.427 229.404 31.574 229.673 30.8601C229.942 30.1462 230.188 29.5992 230.41 29.2191C230.633 28.8391 230.744 28.6583 230.744 28.6768C230.948 28.3615 231.235 28.2039 231.606 28.2039C231.921 28.2039 232.176 28.3105 232.371 28.5238C232.566 28.737 232.663 28.9827 232.663 29.2609C232.663 29.4648 232.607 29.6503 232.496 29.8171C232.515 29.7986 232.427 29.9516 232.232 30.2761C232.037 30.6006 231.824 31.0688 231.592 31.6807C231.36 32.2926 231.147 33.025 230.953 33.878C230.758 34.731 230.66 35.6674 230.66 36.6873C230.66 37.7072 230.846 38.5045 231.217 39.0793C231.588 39.6541 232.19 39.9416 233.025 39.9416C234.082 39.9416 235.037 39.1581 235.889 37.5913C236.742 36.0244 237.466 33.7483 238.059 30.763C238.096 30.5219 238.207 30.3226 238.393 30.165C238.578 30.0074 238.81 29.9286 239.088 29.9285C239.366 29.9285 239.607 30.0305 239.811 30.2345C240.015 30.4385 240.117 30.6888 240.117 30.9855C240.117 31.0411 240.08 31.3702 240.006 31.9729C239.932 32.5755 239.844 33.3775 239.742 34.3788C239.64 35.3802 239.533 36.5438 239.422 37.8695C239.311 39.1953 239.218 40.6092 239.144 42.1111L239.144 42.1109ZM236.919 48.0075C236.084 49.2128 235.319 50.483 234.624 51.8181C233.929 53.1531 233.331 54.4789 232.83 55.7955C232.329 57.1121 231.94 58.373 231.662 59.5783C231.384 60.7836 231.245 61.8637 231.245 62.8186C231.245 63.7736 231.402 64.5245 231.717 65.0715C232.033 65.6185 232.533 65.892 233.219 65.892C233.831 65.892 234.374 65.5907 234.847 64.9881C235.319 64.3854 235.718 63.5278 236.043 62.4153C236.367 61.3028 236.613 59.9538 236.78 58.3684C236.947 56.7829 237.03 55.0075 237.03 53.0421C237.03 52.2447 237.016 51.4381 236.988 50.6222C236.96 49.8064 236.937 48.9349 236.919 48.0078L236.919 48.0075ZM261.006 39.3573C261.302 38.7268 261.645 38.0454 262.035 37.313C262.424 36.5805 262.841 35.8296 263.286 35.0601C263.731 34.2906 264.204 33.5257 264.705 32.7654C265.206 32.0052 265.725 31.296 266.263 30.6377C266.8 29.9795 267.343 29.5067 267.89 29.2192C268.437 28.9318 268.951 28.7881 269.433 28.7881C269.916 28.7882 270.337 28.8855 270.699 29.0802C271.061 29.2748 271.357 29.5391 271.589 29.8729C271.821 30.2067 271.997 30.5961 272.117 31.0411C272.238 31.486 272.298 31.9681 272.298 32.4873C272.298 32.9138 272.257 33.484 272.173 34.1979C272.09 34.9118 272.048 35.6582 272.048 36.437C272.048 36.882 272.071 37.3224 272.117 37.7581C272.164 38.1939 272.247 38.5833 272.368 38.9263C272.488 39.2694 272.669 39.5475 272.91 39.7607C273.151 39.974 273.466 40.0806 273.856 40.0806C274.301 40.0806 274.746 39.9554 275.191 39.7051C275.636 39.4548 276.072 39.121 276.498 38.7038C276.925 38.2866 277.333 37.823 277.722 37.3131C278.111 36.8032 278.464 36.2933 278.779 35.7834C279.094 35.2735 279.372 34.7821 279.613 34.3092C279.854 33.8363 280.049 33.4422 280.197 33.1271C280.383 32.7006 280.707 32.4873 281.171 32.4873C281.486 32.4873 281.737 32.5986 281.922 32.8211C282.107 33.0436 282.2 33.2847 282.2 33.5443C282.2 33.6926 282.172 33.8317 282.117 33.9615L281.699 34.8793C281.477 35.3429 281.185 35.8806 280.823 36.4926C280.462 37.1045 280.04 37.7442 279.558 38.4118C279.076 39.0794 278.543 39.6959 277.959 40.2614C277.374 40.8269 276.744 41.2904 276.067 41.6521C275.39 42.0137 274.681 42.1945 273.939 42.1944C273.087 42.1944 272.4 42.0137 271.881 41.6521C271.362 41.2905 270.959 40.8316 270.671 40.2753C270.384 39.719 270.189 39.0978 270.087 38.4117C269.985 37.7256 269.934 37.0581 269.934 36.4091C269.934 36.0753 269.953 35.7137 269.99 35.3243L270.185 33.1549C270.203 32.8396 270.212 32.5708 270.212 32.3483C270.212 31.7734 270.134 31.384 269.976 31.1801C269.818 30.9761 269.638 30.8741 269.434 30.8741C269.137 30.8741 268.799 31.0456 268.418 31.3887C268.038 31.7317 267.64 32.1814 267.222 32.7377C266.805 33.294 266.388 33.9198 265.971 34.6152C265.554 35.3106 265.15 36.0013 264.761 36.6873C264.371 37.3734 264.019 38.0224 263.704 38.6343L262.925 40.192C262.536 40.9708 262.142 41.4946 261.743 41.7635C261.344 42.0324 260.987 42.1668 260.672 42.1668C260.097 42.1668 259.657 41.9396 259.351 41.4853C259.045 41.031 258.892 40.4794 258.892 39.8304L258.92 28.0372C258.92 24.8664 258.962 21.9135 259.045 19.1785C259.129 16.4434 259.268 13.968 259.462 11.7522C259.657 9.5364 259.949 7.64504 260.338 6.07812C260.728 4.5112 261.224 3.3013 261.826 2.44843C262.429 1.59556 263.185 1.16908 264.093 1.16899C264.872 1.16899 265.53 1.38223 266.068 1.80871C266.606 2.23519 267.042 2.81464 267.375 3.54708C267.709 4.27951 267.95 5.13248 268.099 6.106C268.247 7.07951 268.321 8.10399 268.321 9.17944C268.321 11.3675 268.122 13.5138 267.723 15.6184C267.324 17.723 266.791 19.7766 266.124 21.7792C265.456 23.7818 264.677 25.7334 263.787 27.634C262.897 29.5346 261.961 31.3842 260.978 33.1829V38.0504L261.006 39.3573ZM261.006 29.094C261.784 27.388 262.494 25.7238 263.133 24.1014C263.773 22.4789 264.32 20.861 264.774 19.2478C265.229 17.6346 265.586 15.9982 265.845 14.3386C266.105 12.679 266.235 10.9499 266.235 9.15127C266.235 8.85459 266.221 8.38175 266.193 7.73276C266.165 7.08376 266.082 6.42551 265.943 5.75799C265.804 5.09047 265.59 4.50636 265.303 4.00566C265.015 3.50496 264.612 3.25464 264.093 3.25469C263.685 3.25469 263.333 3.5282 263.036 4.0752C262.739 4.62221 262.48 5.36392 262.257 6.30032C262.035 7.23673 261.849 8.3261 261.701 9.56843C261.553 10.8108 261.432 12.1273 261.339 13.518C261.247 14.9086 261.177 16.3364 261.131 17.8013C261.084 19.2662 261.052 20.6893 261.033 22.0707C261.015 23.4521 261.006 24.7454 261.006 25.9507V29.0936L261.006 29.094ZM283.118 30.29C283.044 30.7907 282.951 31.2589 282.84 31.6946C282.728 32.1304 282.622 32.5105 282.52 32.835C282.418 33.1595 282.33 33.4237 282.256 33.6277C282.181 33.8317 282.135 33.9429 282.116 33.9615C281.931 34.388 281.607 34.6012 281.143 34.6012C280.883 34.6012 280.642 34.5039 280.42 34.3092C280.197 34.1145 280.086 33.8688 280.086 33.5721C280.086 33.4608 280.105 33.3774 280.142 33.3218C280.179 33.2661 280.234 33.1549 280.309 32.988C280.383 32.8211 280.475 32.543 280.587 32.1536C280.698 31.7642 280.837 31.1616 281.004 30.3457C280.689 30.3457 280.364 30.3364 280.03 30.3179C279.697 30.2994 279.386 30.2345 279.099 30.1232C278.811 30.0119 278.575 29.8358 278.389 29.5947C278.204 29.3537 278.111 29.0199 278.111 28.5934C278.111 28.2782 278.199 27.8517 278.375 27.314C278.552 26.7762 278.788 26.2478 279.085 25.7286C279.381 25.2093 279.715 24.7597 280.086 24.3796C280.457 23.9995 280.828 23.8094 281.199 23.8094C281.625 23.8094 281.973 23.967 282.242 24.2822C282.511 24.5975 282.719 24.9822 282.867 25.4365C283.016 25.8908 283.122 26.3683 283.187 26.869C283.252 27.3697 283.285 27.8054 283.285 28.1762L285.093 28.1484C286.149 28.1484 286.956 28.3802 287.512 28.8438C288.069 29.3073 288.347 30.0676 288.347 31.1246C288.347 31.5511 288.319 31.9961 288.263 32.4597C288.208 32.9232 288.143 33.4007 288.069 33.8921C287.994 34.3836 287.93 34.8703 287.874 35.3524C287.818 35.8345 287.79 36.3073 287.79 36.7709C287.79 37.4384 287.883 37.9901 288.069 38.4258C288.254 38.8616 288.486 39.2092 288.764 39.4688C289.042 39.7284 289.339 39.9092 289.654 40.0112C289.969 40.1132 290.257 40.1642 290.516 40.1642C291.314 40.1642 292.065 39.9046 292.769 39.3854C293.474 38.8662 294.123 38.2404 294.716 37.5079C295.31 36.7754 295.843 36.0012 296.315 35.1854C296.788 34.3695 297.182 33.6556 297.498 33.0437C297.59 32.8768 297.72 32.747 297.887 32.6543C298.054 32.5616 298.23 32.5152 298.415 32.5152C298.749 32.5152 299.009 32.6219 299.194 32.8351C299.38 33.0483 299.472 33.2848 299.472 33.5444C299.472 33.7298 299.435 33.8967 299.361 34.045C298.935 34.8053 298.439 35.6629 297.873 36.6178C297.307 37.5728 296.663 38.4674 295.94 39.3019C295.217 40.1364 294.406 40.841 293.506 41.4158C292.607 41.9906 291.619 42.278 290.544 42.278C289.876 42.278 289.246 42.1529 288.653 41.9025C288.059 41.6522 287.545 41.2906 287.109 40.8178C286.673 40.345 286.326 39.7608 286.066 39.0655C285.806 38.3701 285.677 37.5867 285.677 36.7152C285.677 35.788 285.769 34.8656 285.955 33.9477C286.14 33.0298 286.233 32.1537 286.233 31.3193C286.233 30.967 286.154 30.7027 285.996 30.5266C285.839 30.3504 285.491 30.2623 284.953 30.2623H284.119L283.118 30.29ZM281.254 28.2317C281.254 28.1019 281.25 27.9304 281.24 27.7171C281.231 27.5039 281.213 27.2953 281.185 27.0913C281.157 26.8874 281.12 26.7112 281.073 26.5629C281.027 26.4145 280.976 26.3403 280.92 26.3403C280.865 26.3403 280.795 26.4099 280.712 26.5489C280.628 26.688 280.54 26.8549 280.448 27.0496C280.355 27.2443 280.271 27.4529 280.197 27.6754C280.123 27.8979 280.068 28.0833 280.03 28.2317H281.254V28.2317ZM320 13.8794C320 14.1761 319.898 14.4125 319.694 14.5887C319.49 14.7648 319.24 14.8529 318.943 14.8529H304.841V15.1589C304.841 16.29 304.758 17.4952 304.591 18.7747C304.424 20.0541 304.197 21.3289 303.909 22.599C303.622 23.8692 303.298 25.1069 302.936 26.3122C302.574 27.5175 302.204 28.6301 301.823 29.6499C301.443 30.6698 301.068 31.5552 300.697 32.3061C300.326 33.057 299.992 33.6179 299.696 33.9888C299.937 34.8418 300.224 35.6345 300.558 36.3669C300.892 37.0993 301.267 37.7391 301.684 38.2861C302.102 38.8332 302.551 39.2643 303.033 39.5795C303.515 39.8946 304.035 40.0523 304.591 40.0523C305.24 40.0523 305.884 39.7788 306.524 39.2318C307.164 38.6848 307.757 38.0358 308.304 37.2848C308.851 36.5338 309.333 35.7735 309.75 35.004C310.168 34.2344 310.469 33.6225 310.654 33.1682C310.84 32.7139 311.164 32.4868 311.628 32.4868C311.943 32.4868 312.198 32.598 312.393 32.8205C312.587 33.043 312.685 33.2841 312.685 33.5437C312.685 33.6735 312.657 33.8033 312.601 33.9331L312.212 34.8231C311.989 35.2867 311.707 35.8244 311.364 36.4363C311.021 37.0483 310.622 37.6926 310.168 38.3694C309.713 39.0462 309.203 39.6627 308.638 40.219C308.072 40.7752 307.465 41.2388 306.816 41.6097C306.167 41.9805 305.481 42.166 304.758 42.166C303.478 42.166 302.329 41.7487 301.309 40.9143C300.289 40.0799 299.422 38.9117 298.708 37.4098C297.994 35.9079 297.452 34.1278 297.081 32.0695C296.71 30.0113 296.525 27.7583 296.525 25.3107C296.525 24.6988 296.534 23.9803 296.553 23.1551C296.571 22.33 296.608 21.4585 296.664 20.5407C296.72 19.6229 296.803 18.6772 296.914 17.7036C297.026 16.7301 297.174 15.7798 297.359 14.8526H287.374C287.077 14.8526 286.827 14.7646 286.623 14.5884C286.419 14.4123 286.317 14.1758 286.317 13.8792C286.317 13.5825 286.419 13.346 286.623 13.1699C286.827 12.9937 287.077 12.9057 287.374 12.9057H297.832C298.018 12.2381 298.236 11.6262 298.486 11.0699C298.736 10.5137 299.024 10.0316 299.348 9.62364C299.673 9.21573 300.034 8.89587 300.433 8.66406C300.831 8.43225 301.267 8.31636 301.74 8.31638C302.213 8.31641 302.621 8.4323 302.964 8.66406C303.307 8.89581 303.599 9.21567 303.84 9.62364C304.081 10.0316 304.271 10.5137 304.41 11.0699C304.549 11.6262 304.656 12.2381 304.73 12.9057H318.943C319.24 12.9057 319.49 12.9938 319.694 13.1699C319.898 13.3461 320 13.5825 320 13.8792L320 13.8794ZM299.055 31.2079C299.611 29.984 300.117 28.6629 300.571 27.2444C301.025 25.8259 301.415 24.3934 301.739 22.9471C302.064 21.5007 302.314 20.0822 302.49 18.6915C302.666 17.3008 302.754 16.0214 302.754 14.8532H299.472C299.213 16.0028 299.004 17.426 298.847 19.1226C298.689 20.8193 298.61 22.8822 298.61 25.3113C298.61 26.6649 298.647 27.8006 298.721 28.7185C298.796 29.6363 298.907 30.4661 299.055 31.2078L299.055 31.2079ZM301.642 10.4033C301.475 10.4033 301.234 10.584 300.919 10.9456C300.604 11.3072 300.288 11.9609 299.973 12.9066H302.643C302.55 12.1278 302.416 11.5159 302.24 11.0709C302.064 10.6258 301.864 10.4033 301.642 10.4033V10.4033ZM299.5 33.2104V33.2382V33.2104Z" fill="#CDC729"/>
<path d="M85.6834 89.652C82.4947 89.652 80 88.0224 80 84.3609V74.9154H83.0177V83.9485C83.0177 86.1614 84.1947 86.9863 85.6834 86.9863C87.1822 86.9863 88.3692 86.1514 88.3692 83.9485V74.9154H91.3869V84.3609C91.3869 88.0224 88.8822 89.652 85.6834 89.652ZM100.571 78.9092C103.055 78.9092 104.423 80.1968 104.423 82.4903V89.4512H101.516V83.114C101.516 81.7359 100.661 81.2329 99.6654 81.2329C98.4684 81.2329 97.382 81.8365 97.3619 83.7477V89.4512H94.4649V79.1105H97.3619V80.2573C98.0862 79.4022 99.2027 78.9093 100.571 78.9093L100.571 78.9092ZM107.23 89.4508V74H110.157V89.4508H107.23ZM122.881 84.1295L122.851 84.8236H115.186C115.307 86.5437 116.454 87.3686 117.832 87.3686C118.868 87.3686 119.673 86.8857 120.065 85.9704L122.721 86.3627C122.037 88.455 120.176 89.652 117.852 89.652C114.512 89.652 112.33 87.6804 112.33 84.2805C112.33 80.8806 114.573 78.8888 117.761 78.8888C120.689 78.8888 122.871 80.5084 122.881 84.1296L122.881 84.1295ZM117.782 80.9408C116.464 80.9408 115.549 81.5544 115.267 82.9325H120.015C119.864 81.6148 118.969 80.9408 117.782 80.9408ZM133.565 86.6443C133.565 87.9118 133.685 88.7165 133.816 89.1692V89.4508H131.11L130.879 88.3241C130.104 89.2596 128.766 89.652 127.559 89.652C125.93 89.652 124.34 88.9277 124.34 86.7751C124.34 84.6324 125.94 83.9082 128.102 83.4354L129.802 83.0532C130.537 82.8822 130.798 82.6307 130.798 82.2082C130.798 81.1922 129.873 80.9106 129.058 80.9106C128.012 80.9106 127.217 81.323 127.036 82.4898L124.471 82.0271C124.904 79.8845 126.473 78.9088 129.219 78.9088C131.291 78.9088 133.565 79.5224 133.565 82.6407V86.6442L133.565 86.6443ZM128.465 87.6904C129.843 87.6904 130.949 86.775 130.949 84.7229L128.495 85.417C127.69 85.6081 127.107 85.8898 127.107 86.5839C127.107 87.3282 127.72 87.6903 128.465 87.6903V87.6904ZM140.023 89.652C137.699 89.652 135.898 88.7366 135.526 86.775L137.95 86.091C138.262 87.1975 139.047 87.63 140.023 87.63C140.737 87.63 141.511 87.4087 141.491 86.5939C141.481 85.5176 139.852 85.427 138.212 84.8436C136.975 84.4111 135.788 83.7471 135.788 82.007C135.788 79.8845 137.548 78.9088 139.842 78.9088C141.853 78.9088 143.533 79.6733 143.936 81.6449L141.692 82.1478C141.381 81.1822 140.697 80.8402 139.852 80.8402C139.087 80.8402 138.433 81.1118 138.433 81.7556C138.433 82.5704 139.63 82.7313 140.928 83.0834C142.527 83.5159 144.278 84.2101 144.278 86.423C144.278 88.797 142.256 89.652 140.023 89.652V89.652ZM152.617 78.9092C154.93 78.9092 156.318 80.1968 156.318 82.782V89.4512H153.411V83.2548C153.411 81.7359 152.566 81.2329 151.53 81.2329C150.454 81.2329 149.277 81.7661 149.257 83.7477V89.4512H146.36V74.0004H149.257V80.3477C149.991 79.4524 151.148 78.9092 152.617 78.9092V78.9092ZM171.306 79.1101H174.203V89.4508H171.457L171.387 88.2035C170.663 89.1189 169.516 89.652 168.098 89.652C165.613 89.652 164.245 88.3544 164.245 86.071V79.1101H167.152V85.4473C167.152 86.8153 168.007 87.3183 169.013 87.3183C170.21 87.3183 171.296 86.7147 171.307 84.8136V79.1101H171.306ZM179.977 80.7496C180.5 79.8342 181.858 78.9893 183.357 78.9893V81.5745C181.164 81.5745 180.118 82.2183 180.118 84.4111V89.4508H177.201V79.1101H179.977V80.7497L179.977 80.7496ZM196.665 78.9092C198.979 78.9092 200.367 80.1968 200.367 82.782V89.4512H197.46V83.2548C197.46 81.7359 196.615 81.2329 195.579 81.2329C194.503 81.2329 193.326 81.7661 193.306 83.7477V89.4512H190.409V74.0004H193.306V80.3477C194.04 79.4524 195.197 78.9092 196.665 78.9092V78.9092ZM212.88 84.1295L212.85 84.8236H205.185C205.306 86.5437 206.453 87.3686 207.831 87.3686C208.867 87.3686 209.671 86.8857 210.064 85.9704L212.719 86.3627C212.035 88.455 210.174 89.652 207.851 89.652C204.511 89.652 202.328 87.6804 202.328 84.2805C202.328 80.8806 204.571 78.8888 207.76 78.8888C210.687 78.8888 212.87 80.5084 212.88 84.1296L212.88 84.1295ZM207.781 80.9408C206.463 80.9408 205.548 81.5544 205.266 82.9325H210.014C209.863 81.6148 208.968 80.9408 207.781 80.9408V80.9408ZM223.563 86.6443C223.563 87.9118 223.684 88.7165 223.815 89.1692V89.4508H221.109L220.878 88.3241C220.103 89.2596 218.765 89.652 217.558 89.652C215.929 89.652 214.339 88.9277 214.339 86.7751C214.339 84.6324 215.939 83.9082 218.101 83.4354L219.801 83.0532C220.536 82.8822 220.797 82.6307 220.797 82.2082C220.797 81.1922 219.872 80.9106 219.057 80.9106C218.011 80.9106 217.216 81.323 217.035 82.4898L214.47 82.0271C214.902 79.8845 216.472 78.9088 219.218 78.9088C221.29 78.9088 223.563 79.5224 223.563 82.6407V86.6442L223.563 86.6443ZM218.463 87.6904C219.842 87.6904 220.948 86.775 220.948 84.7229L218.494 85.417C217.689 85.6081 217.105 85.8898 217.105 86.5839C217.105 87.3282 217.719 87.6903 218.463 87.6903V87.6904ZM229.156 80.7496C229.679 79.8342 231.037 78.9893 232.536 78.9893V81.5745C230.343 81.5745 229.297 82.2183 229.297 84.4111V89.4508H226.38V79.1101H229.156V80.7497L229.156 80.7496ZM238.089 89.4508C236.077 89.4508 234.93 88.2839 234.93 86.2218V81.333H232.898V79.11H233.552C234.649 79.11 235.252 78.6875 235.252 77.1384V75.7703H237.867V79.11H240V81.333H237.867V85.91C237.867 86.8354 238.32 87.2478 239.065 87.2478H240V89.4508H238.089H238.089Z" fill="#031A88"/>
</g>
<defs>
<clipPath id="clip0_218_2678">
<rect width="320" height="103.652" fill="white"/>
</clipPath>
</defs>
</svg>
